<?xml version="1.0" encoding="iso-8859-1"?>
<!-- Generator: Adobe Illustrator 16.0.0, SVG Export Plug-In . SVG Version: 6.00 Build 0)  -->
<!DOCTYPE svg PUBLIC "-//W3C//DTD SVG 1.1//EN" "http://www.w3.org/Graphics/SVG/1.1/DTD/svg11.dtd">
<svg version="1.1" id="Capa_1" xmlns="http://www.w3.org/2000/svg" xmlns:xlink="http://www.w3.org/1999/xlink" x="0px" y="0px"
	 width="30.771px" height="30.771px" viewBox="0 0 30.771 30.771" style="enable-background:new 0 0 30.771 30.771;"
	 xml:space="preserve">
<g>
	<g>
		<path d="M9.743,22.4c-0.477-0.201-1.675-3.75-1.807-4.158c0.381,0.229,1.287,0.591,1.729,0.402
			c-0.527-0.281-2.262-3.995-2.425-4.521c0.324,0.322,1.073,0.081,1.073,0.081s-1.618-1.778-2.436-5.428
			c-0.599,3.185-2.284,5.606-2.284,5.606s0.882,0.179,1.148-0.286c-0.056,0.513-1.955,4.372-2.414,4.668
			c0.413,0.16,1.534-0.362,1.777-0.43c-0.066,0.42-2.092,4.063-2.092,4.063l3.435-0.885l-0.43,9.255h1.718l-0.43-9.235L9.743,22.4z"
			/>
		<path d="M28.759,20.259c-1.074-0.453-3.77-6.365-4.066-7.281c0.857,0.515,2.896,1.331,3.893,0.907
			c-1.189-0.634-5.09-4.828-5.459-6.012c0.73,0.726,2.416,0.184,2.416,0.184S21.899,8.216,20.06,0
			c-1.35,7.169-5.14,8.458-5.14,8.458s1.984,0.403,2.583-0.646c-0.125,1.152-4.4,5.679-5.435,6.343c0.931,0.363,3.454-0.815,4-0.966
			c-0.147,0.943-4.709,7.068-4.71,7.068l7.732-1.993l-0.965,12.506h3.867l-0.967-12.465L28.759,20.259z"/>
		<path d="M15.963,23.527c-0.068-0.193,0.068-0.377-0.023-0.548c-0.091-0.172-0.387-0.694-0.794-0.694
			c-0.071-0.342-0.413-0.695-0.652-1.061c-0.125,0.16-0.193,0.57-0.193,0.57s-0.638-0.649-0.889-0.719
			c-0.285,1.162,0.854,1.617,0.854,1.617s-0.062,0.758-0.455,1.071c-0.393,0.313-0.939,0.198-1.834-0.034
			c-0.894-0.234-1.025-0.595-1.891-0.492c-0.866,0.102-1.478,0.47-1.356,1.518c0.123,1.048,0.22,0.875,0.501,1.368
			c0.282,0.491-0.099,1.559-0.11,1.735c-0.012,0.178,0.854,1.469,0.888,1.795c0.034,0.323-0.042,0.742,0.137,0.811
			c0.18,0.068,0.577,0.113,0.658,0.052c0.116-0.088-0.939-1.485-0.837-2.537c0.179,0.138,0.686,1.201,0.82,1.538
			c0.135,0.336,0.06,0.77,0.06,0.77s0.701,0.15,0.736,0.049c0.036-0.104-0.855-1.535-0.847-1.928
			c0.009-0.395,0.299-1.563,0.457-1.569c0.157-0.005,0.62,0.313,1.284,0.017c0.032,0.207,0.015,0.996,0.071,1.244
			c0.222,1.001,0.149,2.264,0.153,2.333s0.129,0.009,0.163,0.077s0,0.188,0.068,0.239c0.068,0.051,0.615,0,0.7,0
			c0.086,0-0.274-0.382-0.393-0.513c-0.118-0.129-0.137-1.658-0.082-2.094c0.029-0.229,0.026-1.044,0.119-1.107
			c0.117,0.459,0.066,0.699,0.091,0.895c0.026,0.198,0.12,0.415,0.137,0.624c0.067,0.837,0,1.632,0.042,1.657
			c0.043,0.025,0.111,0,0.146,0.076c0.034,0.076,0.026,0.238,0.026,0.238s0.717,0.12,0.666-0.009
			c-0.051-0.128-0.258-0.401-0.351-0.546c-0.091-0.145-0.233-1.979-0.075-2.583c0.158-0.603,0.56-0.935,0.594-1.743
			c0.307-0.363,0.358-1.391,0.581-1.424s0.555,0.225,0.74,0.318c0.186,0.096,0.647-0.129,0.548-0.307
			C16.319,24.054,16.032,23.721,15.963,23.527z"/>
	</g>
</g>
<g>
</g>
<g>
</g>
<g>
</g>
<g>
</g>
<g>
</g>
<g>
</g>
<g>
</g>
<g>
</g>
<g>
</g>
<g>
</g>
<g>
</g>
<g>
</g>
<g>
</g>
<g>
</g>
<g>
</g>
</svg>
