<?xml version="1.0" encoding="iso-8859-1"?>
<!-- Generator: Adobe Illustrator 18.0.0, SVG Export Plug-In . SVG Version: 6.00 Build 0)  -->
<!DOCTYPE svg PUBLIC "-//W3C//DTD SVG 1.1//EN" "http://www.w3.org/Graphics/SVG/1.1/DTD/svg11.dtd">
<svg version="1.1" id="Capa_1" xmlns="http://www.w3.org/2000/svg" xmlns:xlink="http://www.w3.org/1999/xlink" x="0px" y="0px"
	 viewBox="0 0 484 484" style="enable-background:new 0 0 484 484;" xml:space="preserve">
<path d="M483.933,384.776l-30.593-202.13c-0.314-2.078-1.692-3.839-3.633-4.645L244.3,92.779c-0.12-0.05-0.244-0.089-0.366-0.131
	c-0.042-0.014-0.083-0.032-0.126-0.045c-0.264-0.083-0.532-0.146-0.803-0.192c-0.055-0.009-0.109-0.017-0.164-0.024
	c-0.558-0.079-1.122-0.079-1.68,0c-0.055,0.008-0.11,0.015-0.164,0.024c-0.271,0.046-0.539,0.108-0.803,0.192
	c-0.042,0.013-0.083,0.031-0.126,0.045c-0.123,0.042-0.246,0.081-0.366,0.131L34.293,178.001c-1.94,0.806-3.318,2.566-3.633,4.645
	L0.068,384.776c-0.262,1.728,0.244,3.484,1.384,4.81s2.801,2.088,4.549,2.088h102.703h266.593H478c1.748,0,3.409-0.763,4.549-2.088
	S484.195,386.503,483.933,384.776z M464.244,334.876h-87.268l-12.424-145.333h77.695L464.244,334.876z M248,231.062h26.192
	c15.398,0,28.464,12.021,29.744,27.365l10.121,121.246H248V231.062z M236,379.673h-66.057l10.12-121.246
	c1.28-15.345,14.347-27.365,29.745-27.365H236V379.673z M315.896,257.429c-1.796-21.515-20.114-38.367-41.703-38.367h-64.385
	c-21.59,0-39.908,16.853-41.704,38.367l-6.464,77.447h-42.572l12.424-145.333h221.017l12.424,145.333H322.36L315.896,257.429z
	 M359.984,177.543L285.61,122.91l131.678,54.633H359.984z M339.714,177.543H144.285L242,105.766L339.714,177.543z M124.016,177.543
	H66.712l131.678-54.633L124.016,177.543z M41.753,189.543h77.694l-12.424,145.333H19.757L41.753,189.543z M17.941,346.876h88.057
	l-2.804,32.797H12.977L17.941,346.876z M118.042,346.876h42.596l-2.737,32.797h-42.662L118.042,346.876z M326.1,379.673
	l-2.738-32.797h42.595l2.804,32.797H326.1z M380.805,379.673l-2.804-32.797h88.058l4.964,32.797H380.805z"/>
<g>
</g>
<g>
</g>
<g>
</g>
<g>
</g>
<g>
</g>
<g>
</g>
<g>
</g>
<g>
</g>
<g>
</g>
<g>
</g>
<g>
</g>
<g>
</g>
<g>
</g>
<g>
</g>
<g>
</g>
</svg>
